# xmcd
#
# Track frame offsets:
#	150
#	15975
#	31875
#	47025
#	65775
#	84750
#	100125
#	121275
#	137100
#	153150
#	172125
#	188400
#	202575
#	218775
#	235275
#	250425
#	268725
#	282675
#
# Disc length: 3969 seconds
#
# Revision: 1
# Processed by: cddbd v1.5.2PL0 Copyright (c) Steve Scherf et al.
# Submitted via: audiograbber 1.83.01
#
DISCID=f80f7f12
DTITLE=Various Artist - CSZ208
DYEAR=1900
DGENRE=Karaoke
TTITLE0=Dixie Chicks - Without You
TTITLE1=Patty Loveless - That's The Kind Of Mood I'm In
TTITLE2=Martina Mc Bride - There You Are
TTITLE3=Tim McGraw and Faith Hill  - Let's Make Love
TTITLE4=Lee Anne Womack - Ashes By Now
TTITLE5=Jo Dee Messina - That's The Way
TTITLE6=Jo Dee Messina - Burn
TTITLE7=Jo Dee Messina - No Time For Tears
TTITLE8=Reba McIntyre - We;re So Good Together
TTITLE9=Carolyn Johnson - Georgia
TTITLE10=Sara Evans - Born To Fly
TTITLE11=Terri Clark - A Little Gasoline
TTITLE12=Kinleys, The - She Ain't The Girl For You
TTITLE13=Shania Twain - I'm Holding On To Love
TTITLE14=Sonya Isaacs - I've Forgotten How To Feel
TTITLE15=Chely Wright - She Went Out For Cigarettes
TTITLE16=Trisha Yearwood - Where Are You Now
TTITLE17=Jennifer Day - The Fun Of Your Love
EXTD=
EXTT0=
EXTT1=
EXTT2=
EXTT3=
EXTT4=
EXTT5=
EXTT6=
EXTT7=
EXTT8=
EXTT9=
EXTT10=
EXTT11=
EXTT12=
EXTT13=
EXTT14=
EXTT15=
EXTT16=
EXTT17=
PLAYORDER=
